<?xml version="1.0" encoding="UTF-8" standalone="no" ?>
<!DOCTYPE svg PUBLIC "-//W3C//DTD SVG 1.1//EN" "http://www.w3.org/Graphics/SVG/1.1/DTD/svg11.dtd">
<svg xmlns="http://www.w3.org/2000/svg" xmlns:xlink="http://www.w3.org/1999/xlink" version="1.1" width="600" height="600" viewBox="0 0 600 600" xml:space="preserve">
<desc>Created with Fabric.js 4.2.0</desc>
<defs>
</defs>
<rect x="0" y="0" width="100%" height="100%" fill="#ffffff"></rect>
<g transform="matrix(2.14 0 0 2.14 332 -5)" style="" id="59e37adb-0044-4127-a739-568378757e5e"  >
		<text xml:space="preserve" font-family="Times New Roman" font-size="40" font-style="italic" font-weight="normal" style="stroke: none; stroke-width: 1; stroke-dasharray: none; stroke-linecap: butt; stroke-dashoffset: 0; stroke-linejoin: miter; stroke-miterlimit: 4; fill: rgb(0,0,0); fill-rule: nonzero; opacity: 1; white-space: pre;" ><tspan x="-61.66" y="12.57" >lemons.</tspan></text>
</g>
<g transform="matrix(2.14 0 0 2.14 332 595)" style="" id="59e37adb-0044-4127-a739-568378757e5e"  >
		<text xml:space="preserve" font-family="Times New Roman" font-size="40" font-style="italic" font-weight="normal" style="stroke: none; stroke-width: 1; stroke-dasharray: none; stroke-linecap: butt; stroke-dashoffset: 0; stroke-linejoin: miter; stroke-miterlimit: 4; fill: rgb(0,0,0); fill-rule: nonzero; opacity: 1; white-space: pre;" ><tspan x="-61.66" y="12.57" >lemons.</tspan></text>
</g>
<g transform="matrix(2.14 0 0 2.14 658 330)" style="" id="svg_su09sg1lg"  >
		<text xml:space="preserve" font-family="Times New Roman" font-size="40" font-style="italic" font-weight="normal" style="stroke: none; stroke-width: 1; stroke-dasharray: none; stroke-linecap: butt; stroke-dashoffset: 0; stroke-linejoin: miter; stroke-miterlimit: 4; fill: rgb(0,0,0); fill-rule: nonzero; opacity: 1; white-space: pre;" ><tspan x="-61.66" y="12.57" >lemons.</tspan></text>
</g>
<g transform="matrix(2.14 0 0 2.14 332 -5)" style="" id="59e37adb-0044-4127-a739-568378757e5e"  >
		<text xml:space="preserve" font-family="Times New Roman" font-size="40" font-style="italic" font-weight="normal" style="stroke: none; stroke-width: 1; stroke-dasharray: none; stroke-linecap: butt; stroke-dashoffset: 0; stroke-linejoin: miter; stroke-miterlimit: 4; fill: rgb(0,0,0); fill-rule: nonzero; opacity: 1; white-space: pre;" ><tspan x="-61.66" y="12.57" >lemons.</tspan></text>
</g>
<g transform="matrix(2.14 0 0 2.14 658 330)" style="" id="svg_su09sg1lg"  >
		<text xml:space="preserve" font-family="Times New Roman" font-size="40" font-style="italic" font-weight="normal" style="stroke: none; stroke-width: 1; stroke-dasharray: none; stroke-linecap: butt; stroke-dashoffset: 0; stroke-linejoin: miter; stroke-miterlimit: 4; fill: rgb(0,0,0); fill-rule: nonzero; opacity: 1; white-space: pre;" ><tspan x="-61.66" y="12.57" >lemons.</tspan></text>
</g>
<g transform="matrix(2.14 0 0 2.14 58 330)" style="" id="svg_su09sg1lg"  >
		<text xml:space="preserve" font-family="Times New Roman" font-size="40" font-style="italic" font-weight="normal" style="stroke: none; stroke-width: 1; stroke-dasharray: none; stroke-linecap: butt; stroke-dashoffset: 0; stroke-linejoin: miter; stroke-miterlimit: 4; fill: rgb(0,0,0); fill-rule: nonzero; opacity: 1; white-space: pre;" ><tspan x="-61.66" y="12.57" >lemons.</tspan></text>
</g>
<g transform="matrix(0.69 0 0 0.69 616 650)" id="svg_a8xtcjh0i"  >
<g style=""   >
		<g transform="matrix(1 0 0 1 -122.28 -136.5)"  >
<path style="stroke: none; stroke-width: 1; stroke-dasharray: none; stroke-linecap: butt; stroke-dashoffset: 0; stroke-linejoin: miter; stroke-miterlimit: 4; fill: rgb(98,193,54); fill-rule: nonzero; opacity: 1;"  transform=" translate(-133.72, -119.5)" d="M 169.295 155.079 C 139.95999999999998 184.41400000000002 89.97699999999999 183.728 75.08299999999998 182.799 C 72.57799999999999 182.643 70.57599999999998 180.64100000000002 70.41999999999999 178.136 C 69.48999999999998 163.24099999999999 68.80399999999999 113.259 98.13999999999999 83.92399999999999 C 132.904 49.15999999999999 196.66299999999998 56.556 196.66299999999998 56.556 C 196.66299999999998 56.556 204.05899999999997 120.315 169.295 155.079 z" stroke-linecap="round" />
</g>
		<g transform="matrix(1 0 0 1 -112.98 -137.68)"  >
<path style="stroke: none; stroke-width: 1; stroke-dasharray: none; stroke-linecap: butt; stroke-dashoffset: 0; stroke-linejoin: miter; stroke-miterlimit: 4; fill: rgb(92,173,50); fill-rule: nonzero; opacity: 1;"  transform=" translate(-143.02, -118.32)" d="M 196.705 56.956 C 196.57600000000002 57.056000000000004 196.44400000000002 57.152 196.31500000000003 57.252 C 196.54200000000003 56.798 196.66200000000003 56.555 196.66200000000003 56.555 C 196.66200000000003 56.555 132.90200000000004 49.159 98.13900000000004 83.923 C 94.56900000000005 87.493 91.45100000000004 91.37100000000001 88.71700000000004 95.452 C 100.47000000000004 104.36699999999999 115.24600000000004 113.043 131.68100000000004 116.991 C 134.99700000000004 117.787 136.69800000000004 121.462 135.07400000000004 124.461 C 126.56100000000004 140.179 119.20900000000005 158.78199999999998 114.15300000000005 180.753 C 132.85400000000004 177.58599999999998 153.91200000000003 170.462 169.29500000000004 155.07899999999998 C 202.45400000000004 121.91999999999999 197.25600000000003 62.38299999999998 196.70500000000004 56.955999999999975 z" stroke-linecap="round" />
</g>
		<g transform="matrix(1 0 0 1 -96.09 -205.69)"  >
<path style="stroke: none; stroke-width: 1; stroke-dasharray: none; stroke-linecap: butt; stroke-dashoffset: 0; stroke-linejoin: miter; stroke-miterlimit: 4; fill: rgb(152,219,124); fill-rule: nonzero; opacity: 1;"  transform=" translate(-159.91, -50.31)" d="M 159.131 100.629 C 117.64500000000001 100.629 82.787 64.801 72.912 53.612 C 71.251 51.730000000000004 71.251 48.899 72.912 47.017 C 82.787 35.828 117.64500000000001 0 159.131 0 C 208.29500000000002 0 248.149 50.315 248.149 50.315 C 248.149 50.315 208.29500000000002 100.62899999999999 159.131 100.62899999999999 z" stroke-linecap="round" />
</g>
		<g transform="matrix(1 0 0 1 -96.09 -191.29)"  >
<path style="stroke: none; stroke-width: 1; stroke-dasharray: none; stroke-linecap: butt; stroke-dashoffset: 0; stroke-linejoin: miter; stroke-miterlimit: 4; fill: rgb(130,211,97); fill-rule: nonzero; opacity: 1;"  transform=" translate(-159.91, -64.71)" d="M 239.774 41.027 C 239.773 41.026 239.773 41.025 239.772 41.025 C 236.29899999999998 37.47 231.84099999999998 33.205 226.558 28.782999999999998 C 215.545 41.278 203.257 52.57599999999999 189.632 62.206 C 183.815 66.318 177.55 71.31400000000001 171.163 77.315 C 167.92700000000002 80.356 163.64800000000002 82.04899999999999 159.208 82.04899999999999 L 159.131 82.04899999999999 C 123.458 82.04899999999999 92.69200000000001 55.56299999999999 78.49 41.02499999999999 C 76.181 43.38899999999999 74.30799999999999 45.43799999999999 72.92399999999999 47.004999999999995 C 71.25299999999999 48.897999999999996 71.24699999999999 51.727 72.91799999999999 53.62 C 82.29299999999999 64.239 114.127 96.997 152.771 100.347 C 154.868 100.591 157.022 100.63 159.13 100.63 C 208.29399999999998 100.63 248.148 50.315 248.148 50.315 C 248.148 50.315 245.144 46.522999999999996 239.774 41.027 z" stroke-linecap="round" />
</g>
		<g transform="matrix(1 0 0 1 24.52 9.28)"  >
<path style="stroke: none; stroke-width: 1; stroke-dasharray: none; stroke-linecap: butt; stroke-dashoffset: 0; stroke-linejoin: miter; stroke-miterlimit: 4; fill: rgb(255,229,90); fill-rule: nonzero; opacity: 1;"  transform=" translate(-280.52, -265.28)" d="M 119.15 265.279 C 119.15 374.53499999999997 168.092 427.99199999999996 201.89100000000002 451.88300000000004 C 218.769 463.81300000000005 233.598 478.29900000000004 246.49 494.45300000000003 C 253.90300000000002 503.74300000000005 264.889 512 280.51800000000003 512 C 296.14700000000005 512 307.13300000000004 503.742 314.54600000000005 494.453 C 327.43700000000007 478.298 342.26700000000005 463.81199999999995 359.14500000000004 451.883 C 392.944 427.993 441.886 374.536 441.886 265.279 C 441.886 156.022 392.944 102.566 359.14500000000004 78.67499999999998 C 342.26700000000005 66.74499999999998 327.43800000000005 52.258999999999986 314.54600000000005 36.10499999999998 C 307.13300000000004 26.814999999999984 296.14700000000005 18.557999999999982 280.51800000000003 18.557999999999982 C 264.889 18.557999999999982 253.90300000000002 26.81599999999998 246.49000000000004 36.10499999999998 C 233.59800000000004 52.259999999999984 218.76900000000003 66.74599999999998 201.89100000000005 78.67499999999998 C 168.09200000000004 102.56499999999998 119.15000000000005 156.022 119.15000000000005 265.279 z" stroke-linecap="round" />
</g>
		<g transform="matrix(1 0 0 1 99.07 9.28)"  >
<path style="stroke: none; stroke-width: 1; stroke-dasharray: none; stroke-linecap: butt; stroke-dashoffset: 0; stroke-linejoin: miter; stroke-miterlimit: 4; fill: rgb(255,217,29); fill-rule: nonzero; opacity: 1;"  transform=" translate(-355.07, -265.28)" d="M 359.145 78.675 C 342.267 66.746 327.438 52.259 314.546 36.105 C 307.133 26.814999999999998 296.147 18.557999999999996 280.518 18.557999999999996 C 276.05699999999996 18.557999999999996 271.988 19.248999999999995 268.25899999999996 20.425999999999995 C 277.59599999999995 23.373999999999995 284.72999999999996 29.466999999999995 290.02799999999996 36.105999999999995 C 302.91999999999996 52.260999999999996 317.74899999999997 66.74699999999999 334.62699999999995 78.67599999999999 C 368.42599999999993 102.56599999999999 417.36899999999997 156.02299999999997 417.36899999999997 265.28 C 417.36899999999997 374.53599999999994 368.42699999999996 427.99299999999994 334.62699999999995 451.883 C 317.74899999999997 463.813 302.91999999999996 478.299 290.02799999999996 494.45399999999995 C 284.72999999999996 501.09299999999996 277.59599999999995 507.1859999999999 268.25899999999996 510.13399999999996 C 271.98799999999994 511.311 276.05799999999994 512.002 280.518 512.002 C 296.147 512.002 307.133 503.74399999999997 314.546 494.4549999999999 C 327.437 478.29999999999995 342.267 463.8139999999999 359.145 451.8839999999999 C 392.94399999999996 427.9939999999999 441.887 374.5369999999999 441.887 265.2809999999999 C 441.887 156.02199999999988 392.945 102.56499999999988 359.145 78.6749999999999 z" stroke-linecap="round" />
</g>
		<g transform="matrix(0.97 -0.23 0.23 0.97 143.78 42.39)"  >
<ellipse style="stroke: none; stroke-width: 1; stroke-dasharray: none; stroke-linecap: butt; stroke-dashoffset: 0; stroke-linejoin: miter; stroke-miterlimit: 4; fill: rgb(249,207,30); fill-rule: nonzero; opacity: 1;"  cx="0" cy="0" rx="13.126" ry="13.126" />
</g>
		<g transform="matrix(1 0 0 1 92.84 56.5)"  >
<circle style="stroke: none; stroke-width: 1; stroke-dasharray: none; stroke-linecap: butt; stroke-dashoffset: 0; stroke-linejoin: miter; stroke-miterlimit: 4; fill: rgb(249,207,30); fill-rule: nonzero; opacity: 1;"  cx="0" cy="0" r="13.126" />
</g>
		<g transform="matrix(1 0 0 1 121.61 100.09)"  >
<circle style="stroke: none; stroke-width: 1; stroke-dasharray: none; stroke-linecap: butt; stroke-dashoffset: 0; stroke-linejoin: miter; stroke-miterlimit: 4; fill: rgb(249,207,30); fill-rule: nonzero; opacity: 1;"  cx="0" cy="0" r="13.126" />
</g>
		<g transform="matrix(0.92 -0.38 0.38 0.92 63.1 100.03)"  >
<ellipse style="stroke: none; stroke-width: 1; stroke-dasharray: none; stroke-linecap: butt; stroke-dashoffset: 0; stroke-linejoin: miter; stroke-miterlimit: 4; fill: rgb(249,207,30); fill-rule: nonzero; opacity: 1;"  cx="0" cy="0" rx="13.126" ry="13.126" />
</g>
		<g transform="matrix(0.16 -0.99 0.99 0.16 91.77 140.24)"  >
<ellipse style="stroke: none; stroke-width: 1; stroke-dasharray: none; stroke-linecap: butt; stroke-dashoffset: 0; stroke-linejoin: miter; stroke-miterlimit: 4; fill: rgb(249,207,30); fill-rule: nonzero; opacity: 1;"  cx="0" cy="0" rx="13.126" ry="13.126" />
</g>
		<g transform="matrix(1 0 0 1 45.14 167.29)"  >
<path style="stroke: none; stroke-width: 1; stroke-dasharray: none; stroke-linecap: butt; stroke-dashoffset: 0; stroke-linejoin: miter; stroke-miterlimit: 4; fill: rgb(249,207,30); fill-rule: nonzero; opacity: 1;"  transform=" translate(-301.14, -423.29)" d="M 314.265 423.289 C 314.265 430.538 308.388 436.41499999999996 301.139 436.41499999999996 C 293.889 436.41499999999996 288.012 430.53799999999995 288.012 423.289 C 288.012 416.04 293.889 410.163 301.139 410.163 C 308.38800000000003 410.163 314.265 416.04 314.265 423.289 z" stroke-linecap="round" />
</g>
</g>
</g>
<g transform="matrix(0.69 0 0 0.69 16 650)" id="svg_a8xtcjh0i"  >
<g style=""   >
		<g transform="matrix(1 0 0 1 -122.28 -136.5)"  >
<path style="stroke: none; stroke-width: 1; stroke-dasharray: none; stroke-linecap: butt; stroke-dashoffset: 0; stroke-linejoin: miter; stroke-miterlimit: 4; fill: rgb(98,193,54); fill-rule: nonzero; opacity: 1;"  transform=" translate(-133.72, -119.5)" d="M 169.295 155.079 C 139.95999999999998 184.41400000000002 89.97699999999999 183.728 75.08299999999998 182.799 C 72.57799999999999 182.643 70.57599999999998 180.64100000000002 70.41999999999999 178.136 C 69.48999999999998 163.24099999999999 68.80399999999999 113.259 98.13999999999999 83.92399999999999 C 132.904 49.15999999999999 196.66299999999998 56.556 196.66299999999998 56.556 C 196.66299999999998 56.556 204.05899999999997 120.315 169.295 155.079 z" stroke-linecap="round" />
</g>
		<g transform="matrix(1 0 0 1 -112.98 -137.68)"  >
<path style="stroke: none; stroke-width: 1; stroke-dasharray: none; stroke-linecap: butt; stroke-dashoffset: 0; stroke-linejoin: miter; stroke-miterlimit: 4; fill: rgb(92,173,50); fill-rule: nonzero; opacity: 1;"  transform=" translate(-143.02, -118.32)" d="M 196.705 56.956 C 196.57600000000002 57.056000000000004 196.44400000000002 57.152 196.31500000000003 57.252 C 196.54200000000003 56.798 196.66200000000003 56.555 196.66200000000003 56.555 C 196.66200000000003 56.555 132.90200000000004 49.159 98.13900000000004 83.923 C 94.56900000000005 87.493 91.45100000000004 91.37100000000001 88.71700000000004 95.452 C 100.47000000000004 104.36699999999999 115.24600000000004 113.043 131.68100000000004 116.991 C 134.99700000000004 117.787 136.69800000000004 121.462 135.07400000000004 124.461 C 126.56100000000004 140.179 119.20900000000005 158.78199999999998 114.15300000000005 180.753 C 132.85400000000004 177.58599999999998 153.91200000000003 170.462 169.29500000000004 155.07899999999998 C 202.45400000000004 121.91999999999999 197.25600000000003 62.38299999999998 196.70500000000004 56.955999999999975 z" stroke-linecap="round" />
</g>
		<g transform="matrix(1 0 0 1 -96.09 -205.69)"  >
<path style="stroke: none; stroke-width: 1; stroke-dasharray: none; stroke-linecap: butt; stroke-dashoffset: 0; stroke-linejoin: miter; stroke-miterlimit: 4; fill: rgb(152,219,124); fill-rule: nonzero; opacity: 1;"  transform=" translate(-159.91, -50.31)" d="M 159.131 100.629 C 117.64500000000001 100.629 82.787 64.801 72.912 53.612 C 71.251 51.730000000000004 71.251 48.899 72.912 47.017 C 82.787 35.828 117.64500000000001 0 159.131 0 C 208.29500000000002 0 248.149 50.315 248.149 50.315 C 248.149 50.315 208.29500000000002 100.62899999999999 159.131 100.62899999999999 z" stroke-linecap="round" />
</g>
		<g transform="matrix(1 0 0 1 -96.09 -191.29)"  >
<path style="stroke: none; stroke-width: 1; stroke-dasharray: none; stroke-linecap: butt; stroke-dashoffset: 0; stroke-linejoin: miter; stroke-miterlimit: 4; fill: rgb(130,211,97); fill-rule: nonzero; opacity: 1;"  transform=" translate(-159.91, -64.71)" d="M 239.774 41.027 C 239.773 41.026 239.773 41.025 239.772 41.025 C 236.29899999999998 37.47 231.84099999999998 33.205 226.558 28.782999999999998 C 215.545 41.278 203.257 52.57599999999999 189.632 62.206 C 183.815 66.318 177.55 71.31400000000001 171.163 77.315 C 167.92700000000002 80.356 163.64800000000002 82.04899999999999 159.208 82.04899999999999 L 159.131 82.04899999999999 C 123.458 82.04899999999999 92.69200000000001 55.56299999999999 78.49 41.02499999999999 C 76.181 43.38899999999999 74.30799999999999 45.43799999999999 72.92399999999999 47.004999999999995 C 71.25299999999999 48.897999999999996 71.24699999999999 51.727 72.91799999999999 53.62 C 82.29299999999999 64.239 114.127 96.997 152.771 100.347 C 154.868 100.591 157.022 100.63 159.13 100.63 C 208.29399999999998 100.63 248.148 50.315 248.148 50.315 C 248.148 50.315 245.144 46.522999999999996 239.774 41.027 z" stroke-linecap="round" />
</g>
		<g transform="matrix(1 0 0 1 24.52 9.28)"  >
<path style="stroke: none; stroke-width: 1; stroke-dasharray: none; stroke-linecap: butt; stroke-dashoffset: 0; stroke-linejoin: miter; stroke-miterlimit: 4; fill: rgb(255,229,90); fill-rule: nonzero; opacity: 1;"  transform=" translate(-280.52, -265.28)" d="M 119.15 265.279 C 119.15 374.53499999999997 168.092 427.99199999999996 201.89100000000002 451.88300000000004 C 218.769 463.81300000000005 233.598 478.29900000000004 246.49 494.45300000000003 C 253.90300000000002 503.74300000000005 264.889 512 280.51800000000003 512 C 296.14700000000005 512 307.13300000000004 503.742 314.54600000000005 494.453 C 327.43700000000007 478.298 342.26700000000005 463.81199999999995 359.14500000000004 451.883 C 392.944 427.993 441.886 374.536 441.886 265.279 C 441.886 156.022 392.944 102.566 359.14500000000004 78.67499999999998 C 342.26700000000005 66.74499999999998 327.43800000000005 52.258999999999986 314.54600000000005 36.10499999999998 C 307.13300000000004 26.814999999999984 296.14700000000005 18.557999999999982 280.51800000000003 18.557999999999982 C 264.889 18.557999999999982 253.90300000000002 26.81599999999998 246.49000000000004 36.10499999999998 C 233.59800000000004 52.259999999999984 218.76900000000003 66.74599999999998 201.89100000000005 78.67499999999998 C 168.09200000000004 102.56499999999998 119.15000000000005 156.022 119.15000000000005 265.279 z" stroke-linecap="round" />
</g>
		<g transform="matrix(1 0 0 1 99.07 9.28)"  >
<path style="stroke: none; stroke-width: 1; stroke-dasharray: none; stroke-linecap: butt; stroke-dashoffset: 0; stroke-linejoin: miter; stroke-miterlimit: 4; fill: rgb(255,217,29); fill-rule: nonzero; opacity: 1;"  transform=" translate(-355.07, -265.28)" d="M 359.145 78.675 C 342.267 66.746 327.438 52.259 314.546 36.105 C 307.133 26.814999999999998 296.147 18.557999999999996 280.518 18.557999999999996 C 276.05699999999996 18.557999999999996 271.988 19.248999999999995 268.25899999999996 20.425999999999995 C 277.59599999999995 23.373999999999995 284.72999999999996 29.466999999999995 290.02799999999996 36.105999999999995 C 302.91999999999996 52.260999999999996 317.74899999999997 66.74699999999999 334.62699999999995 78.67599999999999 C 368.42599999999993 102.56599999999999 417.36899999999997 156.02299999999997 417.36899999999997 265.28 C 417.36899999999997 374.53599999999994 368.42699999999996 427.99299999999994 334.62699999999995 451.883 C 317.74899999999997 463.813 302.91999999999996 478.299 290.02799999999996 494.45399999999995 C 284.72999999999996 501.09299999999996 277.59599999999995 507.1859999999999 268.25899999999996 510.13399999999996 C 271.98799999999994 511.311 276.05799999999994 512.002 280.518 512.002 C 296.147 512.002 307.133 503.74399999999997 314.546 494.4549999999999 C 327.437 478.29999999999995 342.267 463.8139999999999 359.145 451.8839999999999 C 392.94399999999996 427.9939999999999 441.887 374.5369999999999 441.887 265.2809999999999 C 441.887 156.02199999999988 392.945 102.56499999999988 359.145 78.6749999999999 z" stroke-linecap="round" />
</g>
		<g transform="matrix(0.97 -0.23 0.23 0.97 143.78 42.39)"  >
<ellipse style="stroke: none; stroke-width: 1; stroke-dasharray: none; stroke-linecap: butt; stroke-dashoffset: 0; stroke-linejoin: miter; stroke-miterlimit: 4; fill: rgb(249,207,30); fill-rule: nonzero; opacity: 1;"  cx="0" cy="0" rx="13.126" ry="13.126" />
</g>
		<g transform="matrix(1 0 0 1 92.84 56.5)"  >
<circle style="stroke: none; stroke-width: 1; stroke-dasharray: none; stroke-linecap: butt; stroke-dashoffset: 0; stroke-linejoin: miter; stroke-miterlimit: 4; fill: rgb(249,207,30); fill-rule: nonzero; opacity: 1;"  cx="0" cy="0" r="13.126" />
</g>
		<g transform="matrix(1 0 0 1 121.61 100.09)"  >
<circle style="stroke: none; stroke-width: 1; stroke-dasharray: none; stroke-linecap: butt; stroke-dashoffset: 0; stroke-linejoin: miter; stroke-miterlimit: 4; fill: rgb(249,207,30); fill-rule: nonzero; opacity: 1;"  cx="0" cy="0" r="13.126" />
</g>
		<g transform="matrix(0.92 -0.38 0.38 0.92 63.1 100.03)"  >
<ellipse style="stroke: none; stroke-width: 1; stroke-dasharray: none; stroke-linecap: butt; stroke-dashoffset: 0; stroke-linejoin: miter; stroke-miterlimit: 4; fill: rgb(249,207,30); fill-rule: nonzero; opacity: 1;"  cx="0" cy="0" rx="13.126" ry="13.126" />
</g>
		<g transform="matrix(0.16 -0.99 0.99 0.16 91.77 140.24)"  >
<ellipse style="stroke: none; stroke-width: 1; stroke-dasharray: none; stroke-linecap: butt; stroke-dashoffset: 0; stroke-linejoin: miter; stroke-miterlimit: 4; fill: rgb(249,207,30); fill-rule: nonzero; opacity: 1;"  cx="0" cy="0" rx="13.126" ry="13.126" />
</g>
		<g transform="matrix(1 0 0 1 45.14 167.29)"  >
<path style="stroke: none; stroke-width: 1; stroke-dasharray: none; stroke-linecap: butt; stroke-dashoffset: 0; stroke-linejoin: miter; stroke-miterlimit: 4; fill: rgb(249,207,30); fill-rule: nonzero; opacity: 1;"  transform=" translate(-301.14, -423.29)" d="M 314.265 423.289 C 314.265 430.538 308.388 436.41499999999996 301.139 436.41499999999996 C 293.889 436.41499999999996 288.012 430.53799999999995 288.012 423.289 C 288.012 416.04 293.889 410.163 301.139 410.163 C 308.38800000000003 410.163 314.265 416.04 314.265 423.289 z" stroke-linecap="round" />
</g>
</g>
</g>
<g transform="matrix(0.69 0 0 0.69 320 308)" id="svg_l3odbrmkd"  >
<g style=""   >
		<g transform="matrix(1 0 0 1 -122.28 -136.5)"  >
<path style="stroke: none; stroke-width: 1; stroke-dasharray: none; stroke-linecap: butt; stroke-dashoffset: 0; stroke-linejoin: miter; stroke-miterlimit: 4; fill: rgb(98,193,54); fill-rule: nonzero; opacity: 1;"  transform=" translate(-133.72, -119.5)" d="M 169.295 155.079 C 139.95999999999998 184.41400000000002 89.97699999999999 183.728 75.08299999999998 182.799 C 72.57799999999999 182.643 70.57599999999998 180.64100000000002 70.41999999999999 178.136 C 69.48999999999998 163.24099999999999 68.80399999999999 113.259 98.13999999999999 83.92399999999999 C 132.904 49.15999999999999 196.66299999999998 56.556 196.66299999999998 56.556 C 196.66299999999998 56.556 204.05899999999997 120.315 169.295 155.079 z" stroke-linecap="round" />
</g>
		<g transform="matrix(1 0 0 1 -112.98 -137.68)"  >
<path style="stroke: none; stroke-width: 1; stroke-dasharray: none; stroke-linecap: butt; stroke-dashoffset: 0; stroke-linejoin: miter; stroke-miterlimit: 4; fill: rgb(92,173,50); fill-rule: nonzero; opacity: 1;"  transform=" translate(-143.02, -118.32)" d="M 196.705 56.956 C 196.57600000000002 57.056000000000004 196.44400000000002 57.152 196.31500000000003 57.252 C 196.54200000000003 56.798 196.66200000000003 56.555 196.66200000000003 56.555 C 196.66200000000003 56.555 132.90200000000004 49.159 98.13900000000004 83.923 C 94.56900000000005 87.493 91.45100000000004 91.37100000000001 88.71700000000004 95.452 C 100.47000000000004 104.36699999999999 115.24600000000004 113.043 131.68100000000004 116.991 C 134.99700000000004 117.787 136.69800000000004 121.462 135.07400000000004 124.461 C 126.56100000000004 140.179 119.20900000000005 158.78199999999998 114.15300000000005 180.753 C 132.85400000000004 177.58599999999998 153.91200000000003 170.462 169.29500000000004 155.07899999999998 C 202.45400000000004 121.91999999999999 197.25600000000003 62.38299999999998 196.70500000000004 56.955999999999975 z" stroke-linecap="round" />
</g>
		<g transform="matrix(1 0 0 1 -96.09 -205.69)"  >
<path style="stroke: none; stroke-width: 1; stroke-dasharray: none; stroke-linecap: butt; stroke-dashoffset: 0; stroke-linejoin: miter; stroke-miterlimit: 4; fill: rgb(152,219,124); fill-rule: nonzero; opacity: 1;"  transform=" translate(-159.91, -50.31)" d="M 159.131 100.629 C 117.64500000000001 100.629 82.787 64.801 72.912 53.612 C 71.251 51.730000000000004 71.251 48.899 72.912 47.017 C 82.787 35.828 117.64500000000001 0 159.131 0 C 208.29500000000002 0 248.149 50.315 248.149 50.315 C 248.149 50.315 208.29500000000002 100.62899999999999 159.131 100.62899999999999 z" stroke-linecap="round" />
</g>
		<g transform="matrix(1 0 0 1 -96.09 -191.29)"  >
<path style="stroke: none; stroke-width: 1; stroke-dasharray: none; stroke-linecap: butt; stroke-dashoffset: 0; stroke-linejoin: miter; stroke-miterlimit: 4; fill: rgb(130,211,97); fill-rule: nonzero; opacity: 1;"  transform=" translate(-159.91, -64.71)" d="M 239.774 41.027 C 239.773 41.026 239.773 41.025 239.772 41.025 C 236.29899999999998 37.47 231.84099999999998 33.205 226.558 28.782999999999998 C 215.545 41.278 203.257 52.57599999999999 189.632 62.206 C 183.815 66.318 177.55 71.31400000000001 171.163 77.315 C 167.92700000000002 80.356 163.64800000000002 82.04899999999999 159.208 82.04899999999999 L 159.131 82.04899999999999 C 123.458 82.04899999999999 92.69200000000001 55.56299999999999 78.49 41.02499999999999 C 76.181 43.38899999999999 74.30799999999999 45.43799999999999 72.92399999999999 47.004999999999995 C 71.25299999999999 48.897999999999996 71.24699999999999 51.727 72.91799999999999 53.62 C 82.29299999999999 64.239 114.127 96.997 152.771 100.347 C 154.868 100.591 157.022 100.63 159.13 100.63 C 208.29399999999998 100.63 248.148 50.315 248.148 50.315 C 248.148 50.315 245.144 46.522999999999996 239.774 41.027 z" stroke-linecap="round" />
</g>
		<g transform="matrix(1 0 0 1 24.52 9.28)"  >
<path style="stroke: none; stroke-width: 1; stroke-dasharray: none; stroke-linecap: butt; stroke-dashoffset: 0; stroke-linejoin: miter; stroke-miterlimit: 4; fill: rgb(255,229,90); fill-rule: nonzero; opacity: 1;"  transform=" translate(-280.52, -265.28)" d="M 119.15 265.279 C 119.15 374.53499999999997 168.092 427.99199999999996 201.89100000000002 451.88300000000004 C 218.769 463.81300000000005 233.598 478.29900000000004 246.49 494.45300000000003 C 253.90300000000002 503.74300000000005 264.889 512 280.51800000000003 512 C 296.14700000000005 512 307.13300000000004 503.742 314.54600000000005 494.453 C 327.43700000000007 478.298 342.26700000000005 463.81199999999995 359.14500000000004 451.883 C 392.944 427.993 441.886 374.536 441.886 265.279 C 441.886 156.022 392.944 102.566 359.14500000000004 78.67499999999998 C 342.26700000000005 66.74499999999998 327.43800000000005 52.258999999999986 314.54600000000005 36.10499999999998 C 307.13300000000004 26.814999999999984 296.14700000000005 18.557999999999982 280.51800000000003 18.557999999999982 C 264.889 18.557999999999982 253.90300000000002 26.81599999999998 246.49000000000004 36.10499999999998 C 233.59800000000004 52.259999999999984 218.76900000000003 66.74599999999998 201.89100000000005 78.67499999999998 C 168.09200000000004 102.56499999999998 119.15000000000005 156.022 119.15000000000005 265.279 z" stroke-linecap="round" />
</g>
		<g transform="matrix(1 0 0 1 99.07 9.28)"  >
<path style="stroke: none; stroke-width: 1; stroke-dasharray: none; stroke-linecap: butt; stroke-dashoffset: 0; stroke-linejoin: miter; stroke-miterlimit: 4; fill: rgb(255,217,29); fill-rule: nonzero; opacity: 1;"  transform=" translate(-355.07, -265.28)" d="M 359.145 78.675 C 342.267 66.746 327.438 52.259 314.546 36.105 C 307.133 26.814999999999998 296.147 18.557999999999996 280.518 18.557999999999996 C 276.05699999999996 18.557999999999996 271.988 19.248999999999995 268.25899999999996 20.425999999999995 C 277.59599999999995 23.373999999999995 284.72999999999996 29.466999999999995 290.02799999999996 36.105999999999995 C 302.91999999999996 52.260999999999996 317.74899999999997 66.74699999999999 334.62699999999995 78.67599999999999 C 368.42599999999993 102.56599999999999 417.36899999999997 156.02299999999997 417.36899999999997 265.28 C 417.36899999999997 374.53599999999994 368.42699999999996 427.99299999999994 334.62699999999995 451.883 C 317.74899999999997 463.813 302.91999999999996 478.299 290.02799999999996 494.45399999999995 C 284.72999999999996 501.09299999999996 277.59599999999995 507.1859999999999 268.25899999999996 510.13399999999996 C 271.98799999999994 511.311 276.05799999999994 512.002 280.518 512.002 C 296.147 512.002 307.133 503.74399999999997 314.546 494.4549999999999 C 327.437 478.29999999999995 342.267 463.8139999999999 359.145 451.8839999999999 C 392.94399999999996 427.9939999999999 441.887 374.5369999999999 441.887 265.2809999999999 C 441.887 156.02199999999988 392.945 102.56499999999988 359.145 78.6749999999999 z" stroke-linecap="round" />
</g>
		<g transform="matrix(0.97 -0.23 0.23 0.97 143.78 42.39)"  >
<ellipse style="stroke: none; stroke-width: 1; stroke-dasharray: none; stroke-linecap: butt; stroke-dashoffset: 0; stroke-linejoin: miter; stroke-miterlimit: 4; fill: rgb(249,207,30); fill-rule: nonzero; opacity: 1;"  cx="0" cy="0" rx="13.126" ry="13.126" />
</g>
		<g transform="matrix(1 0 0 1 92.84 56.5)"  >
<circle style="stroke: none; stroke-width: 1; stroke-dasharray: none; stroke-linecap: butt; stroke-dashoffset: 0; stroke-linejoin: miter; stroke-miterlimit: 4; fill: rgb(249,207,30); fill-rule: nonzero; opacity: 1;"  cx="0" cy="0" r="13.126" />
</g>
		<g transform="matrix(1 0 0 1 121.61 100.09)"  >
<circle style="stroke: none; stroke-width: 1; stroke-dasharray: none; stroke-linecap: butt; stroke-dashoffset: 0; stroke-linejoin: miter; stroke-miterlimit: 4; fill: rgb(249,207,30); fill-rule: nonzero; opacity: 1;"  cx="0" cy="0" r="13.126" />
</g>
		<g transform="matrix(0.92 -0.38 0.38 0.92 63.1 100.03)"  >
<ellipse style="stroke: none; stroke-width: 1; stroke-dasharray: none; stroke-linecap: butt; stroke-dashoffset: 0; stroke-linejoin: miter; stroke-miterlimit: 4; fill: rgb(249,207,30); fill-rule: nonzero; opacity: 1;"  cx="0" cy="0" rx="13.126" ry="13.126" />
</g>
		<g transform="matrix(0.16 -0.99 0.99 0.16 91.77 140.24)"  >
<ellipse style="stroke: none; stroke-width: 1; stroke-dasharray: none; stroke-linecap: butt; stroke-dashoffset: 0; stroke-linejoin: miter; stroke-miterlimit: 4; fill: rgb(249,207,30); fill-rule: nonzero; opacity: 1;"  cx="0" cy="0" rx="13.126" ry="13.126" />
</g>
		<g transform="matrix(1 0 0 1 45.14 167.29)"  >
<path style="stroke: none; stroke-width: 1; stroke-dasharray: none; stroke-linecap: butt; stroke-dashoffset: 0; stroke-linejoin: miter; stroke-miterlimit: 4; fill: rgb(249,207,30); fill-rule: nonzero; opacity: 1;"  transform=" translate(-301.14, -423.29)" d="M 314.265 423.289 C 314.265 430.538 308.388 436.41499999999996 301.139 436.41499999999996 C 293.889 436.41499999999996 288.012 430.53799999999995 288.012 423.289 C 288.012 416.04 293.889 410.163 301.139 410.163 C 308.38800000000003 410.163 314.265 416.04 314.265 423.289 z" stroke-linecap="round" />
</g>
</g>
</g>
<g transform="matrix(0.69 0 0 0.69 320 308)" id="svg_l3odbrmkd"  >
<g style=""   >
		<g transform="matrix(1 0 0 1 -122.28 -136.5)"  >
<path style="stroke: none; stroke-width: 1; stroke-dasharray: none; stroke-linecap: butt; stroke-dashoffset: 0; stroke-linejoin: miter; stroke-miterlimit: 4; fill: rgb(98,193,54); fill-rule: nonzero; opacity: 1;"  transform=" translate(-133.72, -119.5)" d="M 169.295 155.079 C 139.95999999999998 184.41400000000002 89.97699999999999 183.728 75.08299999999998 182.799 C 72.57799999999999 182.643 70.57599999999998 180.64100000000002 70.41999999999999 178.136 C 69.48999999999998 163.24099999999999 68.80399999999999 113.259 98.13999999999999 83.92399999999999 C 132.904 49.15999999999999 196.66299999999998 56.556 196.66299999999998 56.556 C 196.66299999999998 56.556 204.05899999999997 120.315 169.295 155.079 z" stroke-linecap="round" />
</g>
		<g transform="matrix(1 0 0 1 -112.98 -137.68)"  >
<path style="stroke: none; stroke-width: 1; stroke-dasharray: none; stroke-linecap: butt; stroke-dashoffset: 0; stroke-linejoin: miter; stroke-miterlimit: 4; fill: rgb(92,173,50); fill-rule: nonzero; opacity: 1;"  transform=" translate(-143.02, -118.32)" d="M 196.705 56.956 C 196.57600000000002 57.056000000000004 196.44400000000002 57.152 196.31500000000003 57.252 C 196.54200000000003 56.798 196.66200000000003 56.555 196.66200000000003 56.555 C 196.66200000000003 56.555 132.90200000000004 49.159 98.13900000000004 83.923 C 94.56900000000005 87.493 91.45100000000004 91.37100000000001 88.71700000000004 95.452 C 100.47000000000004 104.36699999999999 115.24600000000004 113.043 131.68100000000004 116.991 C 134.99700000000004 117.787 136.69800000000004 121.462 135.07400000000004 124.461 C 126.56100000000004 140.179 119.20900000000005 158.78199999999998 114.15300000000005 180.753 C 132.85400000000004 177.58599999999998 153.91200000000003 170.462 169.29500000000004 155.07899999999998 C 202.45400000000004 121.91999999999999 197.25600000000003 62.38299999999998 196.70500000000004 56.955999999999975 z" stroke-linecap="round" />
</g>
		<g transform="matrix(1 0 0 1 -96.09 -205.69)"  >
<path style="stroke: none; stroke-width: 1; stroke-dasharray: none; stroke-linecap: butt; stroke-dashoffset: 0; stroke-linejoin: miter; stroke-miterlimit: 4; fill: rgb(152,219,124); fill-rule: nonzero; opacity: 1;"  transform=" translate(-159.91, -50.31)" d="M 159.131 100.629 C 117.64500000000001 100.629 82.787 64.801 72.912 53.612 C 71.251 51.730000000000004 71.251 48.899 72.912 47.017 C 82.787 35.828 117.64500000000001 0 159.131 0 C 208.29500000000002 0 248.149 50.315 248.149 50.315 C 248.149 50.315 208.29500000000002 100.62899999999999 159.131 100.62899999999999 z" stroke-linecap="round" />
</g>
		<g transform="matrix(1 0 0 1 -96.09 -191.29)"  >
<path style="stroke: none; stroke-width: 1; stroke-dasharray: none; stroke-linecap: butt; stroke-dashoffset: 0; stroke-linejoin: miter; stroke-miterlimit: 4; fill: rgb(130,211,97); fill-rule: nonzero; opacity: 1;"  transform=" translate(-159.91, -64.71)" d="M 239.774 41.027 C 239.773 41.026 239.773 41.025 239.772 41.025 C 236.29899999999998 37.47 231.84099999999998 33.205 226.558 28.782999999999998 C 215.545 41.278 203.257 52.57599999999999 189.632 62.206 C 183.815 66.318 177.55 71.31400000000001 171.163 77.315 C 167.92700000000002 80.356 163.64800000000002 82.04899999999999 159.208 82.04899999999999 L 159.131 82.04899999999999 C 123.458 82.04899999999999 92.69200000000001 55.56299999999999 78.49 41.02499999999999 C 76.181 43.38899999999999 74.30799999999999 45.43799999999999 72.92399999999999 47.004999999999995 C 71.25299999999999 48.897999999999996 71.24699999999999 51.727 72.91799999999999 53.62 C 82.29299999999999 64.239 114.127 96.997 152.771 100.347 C 154.868 100.591 157.022 100.63 159.13 100.63 C 208.29399999999998 100.63 248.148 50.315 248.148 50.315 C 248.148 50.315 245.144 46.522999999999996 239.774 41.027 z" stroke-linecap="round" />
</g>
		<g transform="matrix(1 0 0 1 24.52 9.28)"  >
<path style="stroke: none; stroke-width: 1; stroke-dasharray: none; stroke-linecap: butt; stroke-dashoffset: 0; stroke-linejoin: miter; stroke-miterlimit: 4; fill: rgb(255,229,90); fill-rule: nonzero; opacity: 1;"  transform=" translate(-280.52, -265.28)" d="M 119.15 265.279 C 119.15 374.53499999999997 168.092 427.99199999999996 201.89100000000002 451.88300000000004 C 218.769 463.81300000000005 233.598 478.29900000000004 246.49 494.45300000000003 C 253.90300000000002 503.74300000000005 264.889 512 280.51800000000003 512 C 296.14700000000005 512 307.13300000000004 503.742 314.54600000000005 494.453 C 327.43700000000007 478.298 342.26700000000005 463.81199999999995 359.14500000000004 451.883 C 392.944 427.993 441.886 374.536 441.886 265.279 C 441.886 156.022 392.944 102.566 359.14500000000004 78.67499999999998 C 342.26700000000005 66.74499999999998 327.43800000000005 52.258999999999986 314.54600000000005 36.10499999999998 C 307.13300000000004 26.814999999999984 296.14700000000005 18.557999999999982 280.51800000000003 18.557999999999982 C 264.889 18.557999999999982 253.90300000000002 26.81599999999998 246.49000000000004 36.10499999999998 C 233.59800000000004 52.259999999999984 218.76900000000003 66.74599999999998 201.89100000000005 78.67499999999998 C 168.09200000000004 102.56499999999998 119.15000000000005 156.022 119.15000000000005 265.279 z" stroke-linecap="round" />
</g>
		<g transform="matrix(1 0 0 1 99.07 9.28)"  >
<path style="stroke: none; stroke-width: 1; stroke-dasharray: none; stroke-linecap: butt; stroke-dashoffset: 0; stroke-linejoin: miter; stroke-miterlimit: 4; fill: rgb(255,217,29); fill-rule: nonzero; opacity: 1;"  transform=" translate(-355.07, -265.28)" d="M 359.145 78.675 C 342.267 66.746 327.438 52.259 314.546 36.105 C 307.133 26.814999999999998 296.147 18.557999999999996 280.518 18.557999999999996 C 276.05699999999996 18.557999999999996 271.988 19.248999999999995 268.25899999999996 20.425999999999995 C 277.59599999999995 23.373999999999995 284.72999999999996 29.466999999999995 290.02799999999996 36.105999999999995 C 302.91999999999996 52.260999999999996 317.74899999999997 66.74699999999999 334.62699999999995 78.67599999999999 C 368.42599999999993 102.56599999999999 417.36899999999997 156.02299999999997 417.36899999999997 265.28 C 417.36899999999997 374.53599999999994 368.42699999999996 427.99299999999994 334.62699999999995 451.883 C 317.74899999999997 463.813 302.91999999999996 478.299 290.02799999999996 494.45399999999995 C 284.72999999999996 501.09299999999996 277.59599999999995 507.1859999999999 268.25899999999996 510.13399999999996 C 271.98799999999994 511.311 276.05799999999994 512.002 280.518 512.002 C 296.147 512.002 307.133 503.74399999999997 314.546 494.4549999999999 C 327.437 478.29999999999995 342.267 463.8139999999999 359.145 451.8839999999999 C 392.94399999999996 427.9939999999999 441.887 374.5369999999999 441.887 265.2809999999999 C 441.887 156.02199999999988 392.945 102.56499999999988 359.145 78.6749999999999 z" stroke-linecap="round" />
</g>
		<g transform="matrix(0.97 -0.23 0.23 0.97 143.78 42.39)"  >
<ellipse style="stroke: none; stroke-width: 1; stroke-dasharray: none; stroke-linecap: butt; stroke-dashoffset: 0; stroke-linejoin: miter; stroke-miterlimit: 4; fill: rgb(249,207,30); fill-rule: nonzero; opacity: 1;"  cx="0" cy="0" rx="13.126" ry="13.126" />
</g>
		<g transform="matrix(1 0 0 1 92.84 56.5)"  >
<circle style="stroke: none; stroke-width: 1; stroke-dasharray: none; stroke-linecap: butt; stroke-dashoffset: 0; stroke-linejoin: miter; stroke-miterlimit: 4; fill: rgb(249,207,30); fill-rule: nonzero; opacity: 1;"  cx="0" cy="0" r="13.126" />
</g>
		<g transform="matrix(1 0 0 1 121.61 100.09)"  >
<circle style="stroke: none; stroke-width: 1; stroke-dasharray: none; stroke-linecap: butt; stroke-dashoffset: 0; stroke-linejoin: miter; stroke-miterlimit: 4; fill: rgb(249,207,30); fill-rule: nonzero; opacity: 1;"  cx="0" cy="0" r="13.126" />
</g>
		<g transform="matrix(0.92 -0.38 0.38 0.92 63.1 100.03)"  >
<ellipse style="stroke: none; stroke-width: 1; stroke-dasharray: none; stroke-linecap: butt; stroke-dashoffset: 0; stroke-linejoin: miter; stroke-miterlimit: 4; fill: rgb(249,207,30); fill-rule: nonzero; opacity: 1;"  cx="0" cy="0" rx="13.126" ry="13.126" />
</g>
		<g transform="matrix(0.16 -0.99 0.99 0.16 91.77 140.24)"  >
<ellipse style="stroke: none; stroke-width: 1; stroke-dasharray: none; stroke-linecap: butt; stroke-dashoffset: 0; stroke-linejoin: miter; stroke-miterlimit: 4; fill: rgb(249,207,30); fill-rule: nonzero; opacity: 1;"  cx="0" cy="0" rx="13.126" ry="13.126" />
</g>
		<g transform="matrix(1 0 0 1 45.14 167.29)"  >
<path style="stroke: none; stroke-width: 1; stroke-dasharray: none; stroke-linecap: butt; stroke-dashoffset: 0; stroke-linejoin: miter; stroke-miterlimit: 4; fill: rgb(249,207,30); fill-rule: nonzero; opacity: 1;"  transform=" translate(-301.14, -423.29)" d="M 314.265 423.289 C 314.265 430.538 308.388 436.41499999999996 301.139 436.41499999999996 C 293.889 436.41499999999996 288.012 430.53799999999995 288.012 423.289 C 288.012 416.04 293.889 410.163 301.139 410.163 C 308.38800000000003 410.163 314.265 416.04 314.265 423.289 z" stroke-linecap="round" />
</g>
</g>
</g>
<g transform="matrix(0.69 0 0 0.69 616 50)" id="svg_a8xtcjh0i"  >
<g style=""   >
		<g transform="matrix(1 0 0 1 -122.28 -136.5)"  >
<path style="stroke: none; stroke-width: 1; stroke-dasharray: none; stroke-linecap: butt; stroke-dashoffset: 0; stroke-linejoin: miter; stroke-miterlimit: 4; fill: rgb(98,193,54); fill-rule: nonzero; opacity: 1;"  transform=" translate(-133.72, -119.5)" d="M 169.295 155.079 C 139.95999999999998 184.41400000000002 89.97699999999999 183.728 75.08299999999998 182.799 C 72.57799999999999 182.643 70.57599999999998 180.64100000000002 70.41999999999999 178.136 C 69.48999999999998 163.24099999999999 68.80399999999999 113.259 98.13999999999999 83.92399999999999 C 132.904 49.15999999999999 196.66299999999998 56.556 196.66299999999998 56.556 C 196.66299999999998 56.556 204.05899999999997 120.315 169.295 155.079 z" stroke-linecap="round" />
</g>
		<g transform="matrix(1 0 0 1 -112.98 -137.68)"  >
<path style="stroke: none; stroke-width: 1; stroke-dasharray: none; stroke-linecap: butt; stroke-dashoffset: 0; stroke-linejoin: miter; stroke-miterlimit: 4; fill: rgb(92,173,50); fill-rule: nonzero; opacity: 1;"  transform=" translate(-143.02, -118.32)" d="M 196.705 56.956 C 196.57600000000002 57.056000000000004 196.44400000000002 57.152 196.31500000000003 57.252 C 196.54200000000003 56.798 196.66200000000003 56.555 196.66200000000003 56.555 C 196.66200000000003 56.555 132.90200000000004 49.159 98.13900000000004 83.923 C 94.56900000000005 87.493 91.45100000000004 91.37100000000001 88.71700000000004 95.452 C 100.47000000000004 104.36699999999999 115.24600000000004 113.043 131.68100000000004 116.991 C 134.99700000000004 117.787 136.69800000000004 121.462 135.07400000000004 124.461 C 126.56100000000004 140.179 119.20900000000005 158.78199999999998 114.15300000000005 180.753 C 132.85400000000004 177.58599999999998 153.91200000000003 170.462 169.29500000000004 155.07899999999998 C 202.45400000000004 121.91999999999999 197.25600000000003 62.38299999999998 196.70500000000004 56.955999999999975 z" stroke-linecap="round" />
</g>
		<g transform="matrix(1 0 0 1 -96.09 -205.69)"  >
<path style="stroke: none; stroke-width: 1; stroke-dasharray: none; stroke-linecap: butt; stroke-dashoffset: 0; stroke-linejoin: miter; stroke-miterlimit: 4; fill: rgb(152,219,124); fill-rule: nonzero; opacity: 1;"  transform=" translate(-159.91, -50.31)" d="M 159.131 100.629 C 117.64500000000001 100.629 82.787 64.801 72.912 53.612 C 71.251 51.730000000000004 71.251 48.899 72.912 47.017 C 82.787 35.828 117.64500000000001 0 159.131 0 C 208.29500000000002 0 248.149 50.315 248.149 50.315 C 248.149 50.315 208.29500000000002 100.62899999999999 159.131 100.62899999999999 z" stroke-linecap="round" />
</g>
		<g transform="matrix(1 0 0 1 -96.09 -191.29)"  >
<path style="stroke: none; stroke-width: 1; stroke-dasharray: none; stroke-linecap: butt; stroke-dashoffset: 0; stroke-linejoin: miter; stroke-miterlimit: 4; fill: rgb(130,211,97); fill-rule: nonzero; opacity: 1;"  transform=" translate(-159.91, -64.71)" d="M 239.774 41.027 C 239.773 41.026 239.773 41.025 239.772 41.025 C 236.29899999999998 37.47 231.84099999999998 33.205 226.558 28.782999999999998 C 215.545 41.278 203.257 52.57599999999999 189.632 62.206 C 183.815 66.318 177.55 71.31400000000001 171.163 77.315 C 167.92700000000002 80.356 163.64800000000002 82.04899999999999 159.208 82.04899999999999 L 159.131 82.04899999999999 C 123.458 82.04899999999999 92.69200000000001 55.56299999999999 78.49 41.02499999999999 C 76.181 43.38899999999999 74.30799999999999 45.43799999999999 72.92399999999999 47.004999999999995 C 71.25299999999999 48.897999999999996 71.24699999999999 51.727 72.91799999999999 53.62 C 82.29299999999999 64.239 114.127 96.997 152.771 100.347 C 154.868 100.591 157.022 100.63 159.13 100.63 C 208.29399999999998 100.63 248.148 50.315 248.148 50.315 C 248.148 50.315 245.144 46.522999999999996 239.774 41.027 z" stroke-linecap="round" />
</g>
		<g transform="matrix(1 0 0 1 24.52 9.28)"  >
<path style="stroke: none; stroke-width: 1; stroke-dasharray: none; stroke-linecap: butt; stroke-dashoffset: 0; stroke-linejoin: miter; stroke-miterlimit: 4; fill: rgb(255,229,90); fill-rule: nonzero; opacity: 1;"  transform=" translate(-280.52, -265.28)" d="M 119.15 265.279 C 119.15 374.53499999999997 168.092 427.99199999999996 201.89100000000002 451.88300000000004 C 218.769 463.81300000000005 233.598 478.29900000000004 246.49 494.45300000000003 C 253.90300000000002 503.74300000000005 264.889 512 280.51800000000003 512 C 296.14700000000005 512 307.13300000000004 503.742 314.54600000000005 494.453 C 327.43700000000007 478.298 342.26700000000005 463.81199999999995 359.14500000000004 451.883 C 392.944 427.993 441.886 374.536 441.886 265.279 C 441.886 156.022 392.944 102.566 359.14500000000004 78.67499999999998 C 342.26700000000005 66.74499999999998 327.43800000000005 52.258999999999986 314.54600000000005 36.10499999999998 C 307.13300000000004 26.814999999999984 296.14700000000005 18.557999999999982 280.51800000000003 18.557999999999982 C 264.889 18.557999999999982 253.90300000000002 26.81599999999998 246.49000000000004 36.10499999999998 C 233.59800000000004 52.259999999999984 218.76900000000003 66.74599999999998 201.89100000000005 78.67499999999998 C 168.09200000000004 102.56499999999998 119.15000000000005 156.022 119.15000000000005 265.279 z" stroke-linecap="round" />
</g>
		<g transform="matrix(1 0 0 1 99.07 9.28)"  >
<path style="stroke: none; stroke-width: 1; stroke-dasharray: none; stroke-linecap: butt; stroke-dashoffset: 0; stroke-linejoin: miter; stroke-miterlimit: 4; fill: rgb(255,217,29); fill-rule: nonzero; opacity: 1;"  transform=" translate(-355.07, -265.28)" d="M 359.145 78.675 C 342.267 66.746 327.438 52.259 314.546 36.105 C 307.133 26.814999999999998 296.147 18.557999999999996 280.518 18.557999999999996 C 276.05699999999996 18.557999999999996 271.988 19.248999999999995 268.25899999999996 20.425999999999995 C 277.59599999999995 23.373999999999995 284.72999999999996 29.466999999999995 290.02799999999996 36.105999999999995 C 302.91999999999996 52.260999999999996 317.74899999999997 66.74699999999999 334.62699999999995 78.67599999999999 C 368.42599999999993 102.56599999999999 417.36899999999997 156.02299999999997 417.36899999999997 265.28 C 417.36899999999997 374.53599999999994 368.42699999999996 427.99299999999994 334.62699999999995 451.883 C 317.74899999999997 463.813 302.91999999999996 478.299 290.02799999999996 494.45399999999995 C 284.72999999999996 501.09299999999996 277.59599999999995 507.1859999999999 268.25899999999996 510.13399999999996 C 271.98799999999994 511.311 276.05799999999994 512.002 280.518 512.002 C 296.147 512.002 307.133 503.74399999999997 314.546 494.4549999999999 C 327.437 478.29999999999995 342.267 463.8139999999999 359.145 451.8839999999999 C 392.94399999999996 427.9939999999999 441.887 374.5369999999999 441.887 265.2809999999999 C 441.887 156.02199999999988 392.945 102.56499999999988 359.145 78.6749999999999 z" stroke-linecap="round" />
</g>
		<g transform="matrix(0.97 -0.23 0.23 0.97 143.78 42.39)"  >
<ellipse style="stroke: none; stroke-width: 1; stroke-dasharray: none; stroke-linecap: butt; stroke-dashoffset: 0; stroke-linejoin: miter; stroke-miterlimit: 4; fill: rgb(249,207,30); fill-rule: nonzero; opacity: 1;"  cx="0" cy="0" rx="13.126" ry="13.126" />
</g>
		<g transform="matrix(1 0 0 1 92.84 56.5)"  >
<circle style="stroke: none; stroke-width: 1; stroke-dasharray: none; stroke-linecap: butt; stroke-dashoffset: 0; stroke-linejoin: miter; stroke-miterlimit: 4; fill: rgb(249,207,30); fill-rule: nonzero; opacity: 1;"  cx="0" cy="0" r="13.126" />
</g>
		<g transform="matrix(1 0 0 1 121.61 100.09)"  >
<circle style="stroke: none; stroke-width: 1; stroke-dasharray: none; stroke-linecap: butt; stroke-dashoffset: 0; stroke-linejoin: miter; stroke-miterlimit: 4; fill: rgb(249,207,30); fill-rule: nonzero; opacity: 1;"  cx="0" cy="0" r="13.126" />
</g>
		<g transform="matrix(0.92 -0.38 0.38 0.92 63.1 100.03)"  >
<ellipse style="stroke: none; stroke-width: 1; stroke-dasharray: none; stroke-linecap: butt; stroke-dashoffset: 0; stroke-linejoin: miter; stroke-miterlimit: 4; fill: rgb(249,207,30); fill-rule: nonzero; opacity: 1;"  cx="0" cy="0" rx="13.126" ry="13.126" />
</g>
		<g transform="matrix(0.16 -0.99 0.99 0.16 91.77 140.24)"  >
<ellipse style="stroke: none; stroke-width: 1; stroke-dasharray: none; stroke-linecap: butt; stroke-dashoffset: 0; stroke-linejoin: miter; stroke-miterlimit: 4; fill: rgb(249,207,30); fill-rule: nonzero; opacity: 1;"  cx="0" cy="0" rx="13.126" ry="13.126" />
</g>
		<g transform="matrix(1 0 0 1 45.14 167.29)"  >
<path style="stroke: none; stroke-width: 1; stroke-dasharray: none; stroke-linecap: butt; stroke-dashoffset: 0; stroke-linejoin: miter; stroke-miterlimit: 4; fill: rgb(249,207,30); fill-rule: nonzero; opacity: 1;"  transform=" translate(-301.14, -423.29)" d="M 314.265 423.289 C 314.265 430.538 308.388 436.41499999999996 301.139 436.41499999999996 C 293.889 436.41499999999996 288.012 430.53799999999995 288.012 423.289 C 288.012 416.04 293.889 410.163 301.139 410.163 C 308.38800000000003 410.163 314.265 416.04 314.265 423.289 z" stroke-linecap="round" />
</g>
</g>
</g>
<g transform="matrix(0.69 0 0 0.69 16 50)" id="svg_a8xtcjh0i"  >
<g style=""   >
		<g transform="matrix(1 0 0 1 -122.28 -136.5)"  >
<path style="stroke: none; stroke-width: 1; stroke-dasharray: none; stroke-linecap: butt; stroke-dashoffset: 0; stroke-linejoin: miter; stroke-miterlimit: 4; fill: rgb(98,193,54); fill-rule: nonzero; opacity: 1;"  transform=" translate(-133.72, -119.5)" d="M 169.295 155.079 C 139.95999999999998 184.41400000000002 89.97699999999999 183.728 75.08299999999998 182.799 C 72.57799999999999 182.643 70.57599999999998 180.64100000000002 70.41999999999999 178.136 C 69.48999999999998 163.24099999999999 68.80399999999999 113.259 98.13999999999999 83.92399999999999 C 132.904 49.15999999999999 196.66299999999998 56.556 196.66299999999998 56.556 C 196.66299999999998 56.556 204.05899999999997 120.315 169.295 155.079 z" stroke-linecap="round" />
</g>
		<g transform="matrix(1 0 0 1 -112.98 -137.68)"  >
<path style="stroke: none; stroke-width: 1; stroke-dasharray: none; stroke-linecap: butt; stroke-dashoffset: 0; stroke-linejoin: miter; stroke-miterlimit: 4; fill: rgb(92,173,50); fill-rule: nonzero; opacity: 1;"  transform=" translate(-143.02, -118.32)" d="M 196.705 56.956 C 196.57600000000002 57.056000000000004 196.44400000000002 57.152 196.31500000000003 57.252 C 196.54200000000003 56.798 196.66200000000003 56.555 196.66200000000003 56.555 C 196.66200000000003 56.555 132.90200000000004 49.159 98.13900000000004 83.923 C 94.56900000000005 87.493 91.45100000000004 91.37100000000001 88.71700000000004 95.452 C 100.47000000000004 104.36699999999999 115.24600000000004 113.043 131.68100000000004 116.991 C 134.99700000000004 117.787 136.69800000000004 121.462 135.07400000000004 124.461 C 126.56100000000004 140.179 119.20900000000005 158.78199999999998 114.15300000000005 180.753 C 132.85400000000004 177.58599999999998 153.91200000000003 170.462 169.29500000000004 155.07899999999998 C 202.45400000000004 121.91999999999999 197.25600000000003 62.38299999999998 196.70500000000004 56.955999999999975 z" stroke-linecap="round" />
</g>
		<g transform="matrix(1 0 0 1 -96.09 -205.69)"  >
<path style="stroke: none; stroke-width: 1; stroke-dasharray: none; stroke-linecap: butt; stroke-dashoffset: 0; stroke-linejoin: miter; stroke-miterlimit: 4; fill: rgb(152,219,124); fill-rule: nonzero; opacity: 1;"  transform=" translate(-159.91, -50.31)" d="M 159.131 100.629 C 117.64500000000001 100.629 82.787 64.801 72.912 53.612 C 71.251 51.730000000000004 71.251 48.899 72.912 47.017 C 82.787 35.828 117.64500000000001 0 159.131 0 C 208.29500000000002 0 248.149 50.315 248.149 50.315 C 248.149 50.315 208.29500000000002 100.62899999999999 159.131 100.62899999999999 z" stroke-linecap="round" />
</g>
		<g transform="matrix(1 0 0 1 -96.09 -191.29)"  >
<path style="stroke: none; stroke-width: 1; stroke-dasharray: none; stroke-linecap: butt; stroke-dashoffset: 0; stroke-linejoin: miter; stroke-miterlimit: 4; fill: rgb(130,211,97); fill-rule: nonzero; opacity: 1;"  transform=" translate(-159.91, -64.71)" d="M 239.774 41.027 C 239.773 41.026 239.773 41.025 239.772 41.025 C 236.29899999999998 37.47 231.84099999999998 33.205 226.558 28.782999999999998 C 215.545 41.278 203.257 52.57599999999999 189.632 62.206 C 183.815 66.318 177.55 71.31400000000001 171.163 77.315 C 167.92700000000002 80.356 163.64800000000002 82.04899999999999 159.208 82.04899999999999 L 159.131 82.04899999999999 C 123.458 82.04899999999999 92.69200000000001 55.56299999999999 78.49 41.02499999999999 C 76.181 43.38899999999999 74.30799999999999 45.43799999999999 72.92399999999999 47.004999999999995 C 71.25299999999999 48.897999999999996 71.24699999999999 51.727 72.91799999999999 53.62 C 82.29299999999999 64.239 114.127 96.997 152.771 100.347 C 154.868 100.591 157.022 100.63 159.13 100.63 C 208.29399999999998 100.63 248.148 50.315 248.148 50.315 C 248.148 50.315 245.144 46.522999999999996 239.774 41.027 z" stroke-linecap="round" />
</g>
		<g transform="matrix(1 0 0 1 24.52 9.28)"  >
<path style="stroke: none; stroke-width: 1; stroke-dasharray: none; stroke-linecap: butt; stroke-dashoffset: 0; stroke-linejoin: miter; stroke-miterlimit: 4; fill: rgb(255,229,90); fill-rule: nonzero; opacity: 1;"  transform=" translate(-280.52, -265.28)" d="M 119.15 265.279 C 119.15 374.53499999999997 168.092 427.99199999999996 201.89100000000002 451.88300000000004 C 218.769 463.81300000000005 233.598 478.29900000000004 246.49 494.45300000000003 C 253.90300000000002 503.74300000000005 264.889 512 280.51800000000003 512 C 296.14700000000005 512 307.13300000000004 503.742 314.54600000000005 494.453 C 327.43700000000007 478.298 342.26700000000005 463.81199999999995 359.14500000000004 451.883 C 392.944 427.993 441.886 374.536 441.886 265.279 C 441.886 156.022 392.944 102.566 359.14500000000004 78.67499999999998 C 342.26700000000005 66.74499999999998 327.43800000000005 52.258999999999986 314.54600000000005 36.10499999999998 C 307.13300000000004 26.814999999999984 296.14700000000005 18.557999999999982 280.51800000000003 18.557999999999982 C 264.889 18.557999999999982 253.90300000000002 26.81599999999998 246.49000000000004 36.10499999999998 C 233.59800000000004 52.259999999999984 218.76900000000003 66.74599999999998 201.89100000000005 78.67499999999998 C 168.09200000000004 102.56499999999998 119.15000000000005 156.022 119.15000000000005 265.279 z" stroke-linecap="round" />
</g>
		<g transform="matrix(1 0 0 1 99.07 9.28)"  >
<path style="stroke: none; stroke-width: 1; stroke-dasharray: none; stroke-linecap: butt; stroke-dashoffset: 0; stroke-linejoin: miter; stroke-miterlimit: 4; fill: rgb(255,217,29); fill-rule: nonzero; opacity: 1;"  transform=" translate(-355.07, -265.28)" d="M 359.145 78.675 C 342.267 66.746 327.438 52.259 314.546 36.105 C 307.133 26.814999999999998 296.147 18.557999999999996 280.518 18.557999999999996 C 276.05699999999996 18.557999999999996 271.988 19.248999999999995 268.25899999999996 20.425999999999995 C 277.59599999999995 23.373999999999995 284.72999999999996 29.466999999999995 290.02799999999996 36.105999999999995 C 302.91999999999996 52.260999999999996 317.74899999999997 66.74699999999999 334.62699999999995 78.67599999999999 C 368.42599999999993 102.56599999999999 417.36899999999997 156.02299999999997 417.36899999999997 265.28 C 417.36899999999997 374.53599999999994 368.42699999999996 427.99299999999994 334.62699999999995 451.883 C 317.74899999999997 463.813 302.91999999999996 478.299 290.02799999999996 494.45399999999995 C 284.72999999999996 501.09299999999996 277.59599999999995 507.1859999999999 268.25899999999996 510.13399999999996 C 271.98799999999994 511.311 276.05799999999994 512.002 280.518 512.002 C 296.147 512.002 307.133 503.74399999999997 314.546 494.4549999999999 C 327.437 478.29999999999995 342.267 463.8139999999999 359.145 451.8839999999999 C 392.94399999999996 427.9939999999999 441.887 374.5369999999999 441.887 265.2809999999999 C 441.887 156.02199999999988 392.945 102.56499999999988 359.145 78.6749999999999 z" stroke-linecap="round" />
</g>
		<g transform="matrix(0.97 -0.23 0.23 0.97 143.78 42.39)"  >
<ellipse style="stroke: none; stroke-width: 1; stroke-dasharray: none; stroke-linecap: butt; stroke-dashoffset: 0; stroke-linejoin: miter; stroke-miterlimit: 4; fill: rgb(249,207,30); fill-rule: nonzero; opacity: 1;"  cx="0" cy="0" rx="13.126" ry="13.126" />
</g>
		<g transform="matrix(1 0 0 1 92.84 56.5)"  >
<circle style="stroke: none; stroke-width: 1; stroke-dasharray: none; stroke-linecap: butt; stroke-dashoffset: 0; stroke-linejoin: miter; stroke-miterlimit: 4; fill: rgb(249,207,30); fill-rule: nonzero; opacity: 1;"  cx="0" cy="0" r="13.126" />
</g>
		<g transform="matrix(1 0 0 1 121.61 100.09)"  >
<circle style="stroke: none; stroke-width: 1; stroke-dasharray: none; stroke-linecap: butt; stroke-dashoffset: 0; stroke-linejoin: miter; stroke-miterlimit: 4; fill: rgb(249,207,30); fill-rule: nonzero; opacity: 1;"  cx="0" cy="0" r="13.126" />
</g>
		<g transform="matrix(0.92 -0.38 0.38 0.92 63.1 100.03)"  >
<ellipse style="stroke: none; stroke-width: 1; stroke-dasharray: none; stroke-linecap: butt; stroke-dashoffset: 0; stroke-linejoin: miter; stroke-miterlimit: 4; fill: rgb(249,207,30); fill-rule: nonzero; opacity: 1;"  cx="0" cy="0" rx="13.126" ry="13.126" />
</g>
		<g transform="matrix(0.16 -0.99 0.99 0.16 91.77 140.24)"  >
<ellipse style="stroke: none; stroke-width: 1; stroke-dasharray: none; stroke-linecap: butt; stroke-dashoffset: 0; stroke-linejoin: miter; stroke-miterlimit: 4; fill: rgb(249,207,30); fill-rule: nonzero; opacity: 1;"  cx="0" cy="0" rx="13.126" ry="13.126" />
</g>
		<g transform="matrix(1 0 0 1 45.14 167.29)"  >
<path style="stroke: none; stroke-width: 1; stroke-dasharray: none; stroke-linecap: butt; stroke-dashoffset: 0; stroke-linejoin: miter; stroke-miterlimit: 4; fill: rgb(249,207,30); fill-rule: nonzero; opacity: 1;"  transform=" translate(-301.14, -423.29)" d="M 314.265 423.289 C 314.265 430.538 308.388 436.41499999999996 301.139 436.41499999999996 C 293.889 436.41499999999996 288.012 430.53799999999995 288.012 423.289 C 288.012 416.04 293.889 410.163 301.139 410.163 C 308.38800000000003 410.163 314.265 416.04 314.265 423.289 z" stroke-linecap="round" />
</g>
</g>
</g>
<g transform="matrix(0.69 0 0 0.69 616 650)" id="svg_a8xtcjh0i"  >
<g style=""   >
		<g transform="matrix(1 0 0 1 -122.28 -136.5)"  >
<path style="stroke: none; stroke-width: 1; stroke-dasharray: none; stroke-linecap: butt; stroke-dashoffset: 0; stroke-linejoin: miter; stroke-miterlimit: 4; fill: rgb(98,193,54); fill-rule: nonzero; opacity: 1;"  transform=" translate(-133.72, -119.5)" d="M 169.295 155.079 C 139.95999999999998 184.41400000000002 89.97699999999999 183.728 75.08299999999998 182.799 C 72.57799999999999 182.643 70.57599999999998 180.64100000000002 70.41999999999999 178.136 C 69.48999999999998 163.24099999999999 68.80399999999999 113.259 98.13999999999999 83.92399999999999 C 132.904 49.15999999999999 196.66299999999998 56.556 196.66299999999998 56.556 C 196.66299999999998 56.556 204.05899999999997 120.315 169.295 155.079 z" stroke-linecap="round" />
</g>
		<g transform="matrix(1 0 0 1 -112.98 -137.68)"  >
<path style="stroke: none; stroke-width: 1; stroke-dasharray: none; stroke-linecap: butt; stroke-dashoffset: 0; stroke-linejoin: miter; stroke-miterlimit: 4; fill: rgb(92,173,50); fill-rule: nonzero; opacity: 1;"  transform=" translate(-143.02, -118.32)" d="M 196.705 56.956 C 196.57600000000002 57.056000000000004 196.44400000000002 57.152 196.31500000000003 57.252 C 196.54200000000003 56.798 196.66200000000003 56.555 196.66200000000003 56.555 C 196.66200000000003 56.555 132.90200000000004 49.159 98.13900000000004 83.923 C 94.56900000000005 87.493 91.45100000000004 91.37100000000001 88.71700000000004 95.452 C 100.47000000000004 104.36699999999999 115.24600000000004 113.043 131.68100000000004 116.991 C 134.99700000000004 117.787 136.69800000000004 121.462 135.07400000000004 124.461 C 126.56100000000004 140.179 119.20900000000005 158.78199999999998 114.15300000000005 180.753 C 132.85400000000004 177.58599999999998 153.91200000000003 170.462 169.29500000000004 155.07899999999998 C 202.45400000000004 121.91999999999999 197.25600000000003 62.38299999999998 196.70500000000004 56.955999999999975 z" stroke-linecap="round" />
</g>
		<g transform="matrix(1 0 0 1 -96.09 -205.69)"  >
<path style="stroke: none; stroke-width: 1; stroke-dasharray: none; stroke-linecap: butt; stroke-dashoffset: 0; stroke-linejoin: miter; stroke-miterlimit: 4; fill: rgb(152,219,124); fill-rule: nonzero; opacity: 1;"  transform=" translate(-159.91, -50.31)" d="M 159.131 100.629 C 117.64500000000001 100.629 82.787 64.801 72.912 53.612 C 71.251 51.730000000000004 71.251 48.899 72.912 47.017 C 82.787 35.828 117.64500000000001 0 159.131 0 C 208.29500000000002 0 248.149 50.315 248.149 50.315 C 248.149 50.315 208.29500000000002 100.62899999999999 159.131 100.62899999999999 z" stroke-linecap="round" />
</g>
		<g transform="matrix(1 0 0 1 -96.09 -191.29)"  >
<path style="stroke: none; stroke-width: 1; stroke-dasharray: none; stroke-linecap: butt; stroke-dashoffset: 0; stroke-linejoin: miter; stroke-miterlimit: 4; fill: rgb(130,211,97); fill-rule: nonzero; opacity: 1;"  transform=" translate(-159.91, -64.71)" d="M 239.774 41.027 C 239.773 41.026 239.773 41.025 239.772 41.025 C 236.29899999999998 37.47 231.84099999999998 33.205 226.558 28.782999999999998 C 215.545 41.278 203.257 52.57599999999999 189.632 62.206 C 183.815 66.318 177.55 71.31400000000001 171.163 77.315 C 167.92700000000002 80.356 163.64800000000002 82.04899999999999 159.208 82.04899999999999 L 159.131 82.04899999999999 C 123.458 82.04899999999999 92.69200000000001 55.56299999999999 78.49 41.02499999999999 C 76.181 43.38899999999999 74.30799999999999 45.43799999999999 72.92399999999999 47.004999999999995 C 71.25299999999999 48.897999999999996 71.24699999999999 51.727 72.91799999999999 53.62 C 82.29299999999999 64.239 114.127 96.997 152.771 100.347 C 154.868 100.591 157.022 100.63 159.13 100.63 C 208.29399999999998 100.63 248.148 50.315 248.148 50.315 C 248.148 50.315 245.144 46.522999999999996 239.774 41.027 z" stroke-linecap="round" />
</g>
		<g transform="matrix(1 0 0 1 24.52 9.28)"  >
<path style="stroke: none; stroke-width: 1; stroke-dasharray: none; stroke-linecap: butt; stroke-dashoffset: 0; stroke-linejoin: miter; stroke-miterlimit: 4; fill: rgb(255,229,90); fill-rule: nonzero; opacity: 1;"  transform=" translate(-280.52, -265.28)" d="M 119.15 265.279 C 119.15 374.53499999999997 168.092 427.99199999999996 201.89100000000002 451.88300000000004 C 218.769 463.81300000000005 233.598 478.29900000000004 246.49 494.45300000000003 C 253.90300000000002 503.74300000000005 264.889 512 280.51800000000003 512 C 296.14700000000005 512 307.13300000000004 503.742 314.54600000000005 494.453 C 327.43700000000007 478.298 342.26700000000005 463.81199999999995 359.14500000000004 451.883 C 392.944 427.993 441.886 374.536 441.886 265.279 C 441.886 156.022 392.944 102.566 359.14500000000004 78.67499999999998 C 342.26700000000005 66.74499999999998 327.43800000000005 52.258999999999986 314.54600000000005 36.10499999999998 C 307.13300000000004 26.814999999999984 296.14700000000005 18.557999999999982 280.51800000000003 18.557999999999982 C 264.889 18.557999999999982 253.90300000000002 26.81599999999998 246.49000000000004 36.10499999999998 C 233.59800000000004 52.259999999999984 218.76900000000003 66.74599999999998 201.89100000000005 78.67499999999998 C 168.09200000000004 102.56499999999998 119.15000000000005 156.022 119.15000000000005 265.279 z" stroke-linecap="round" />
</g>
		<g transform="matrix(1 0 0 1 99.07 9.28)"  >
<path style="stroke: none; stroke-width: 1; stroke-dasharray: none; stroke-linecap: butt; stroke-dashoffset: 0; stroke-linejoin: miter; stroke-miterlimit: 4; fill: rgb(255,217,29); fill-rule: nonzero; opacity: 1;"  transform=" translate(-355.07, -265.28)" d="M 359.145 78.675 C 342.267 66.746 327.438 52.259 314.546 36.105 C 307.133 26.814999999999998 296.147 18.557999999999996 280.518 18.557999999999996 C 276.05699999999996 18.557999999999996 271.988 19.248999999999995 268.25899999999996 20.425999999999995 C 277.59599999999995 23.373999999999995 284.72999999999996 29.466999999999995 290.02799999999996 36.105999999999995 C 302.91999999999996 52.260999999999996 317.74899999999997 66.74699999999999 334.62699999999995 78.67599999999999 C 368.42599999999993 102.56599999999999 417.36899999999997 156.02299999999997 417.36899999999997 265.28 C 417.36899999999997 374.53599999999994 368.42699999999996 427.99299999999994 334.62699999999995 451.883 C 317.74899999999997 463.813 302.91999999999996 478.299 290.02799999999996 494.45399999999995 C 284.72999999999996 501.09299999999996 277.59599999999995 507.1859999999999 268.25899999999996 510.13399999999996 C 271.98799999999994 511.311 276.05799999999994 512.002 280.518 512.002 C 296.147 512.002 307.133 503.74399999999997 314.546 494.4549999999999 C 327.437 478.29999999999995 342.267 463.8139999999999 359.145 451.8839999999999 C 392.94399999999996 427.9939999999999 441.887 374.5369999999999 441.887 265.2809999999999 C 441.887 156.02199999999988 392.945 102.56499999999988 359.145 78.6749999999999 z" stroke-linecap="round" />
</g>
		<g transform="matrix(0.97 -0.23 0.23 0.97 143.78 42.39)"  >
<ellipse style="stroke: none; stroke-width: 1; stroke-dasharray: none; stroke-linecap: butt; stroke-dashoffset: 0; stroke-linejoin: miter; stroke-miterlimit: 4; fill: rgb(249,207,30); fill-rule: nonzero; opacity: 1;"  cx="0" cy="0" rx="13.126" ry="13.126" />
</g>
		<g transform="matrix(1 0 0 1 92.84 56.5)"  >
<circle style="stroke: none; stroke-width: 1; stroke-dasharray: none; stroke-linecap: butt; stroke-dashoffset: 0; stroke-linejoin: miter; stroke-miterlimit: 4; fill: rgb(249,207,30); fill-rule: nonzero; opacity: 1;"  cx="0" cy="0" r="13.126" />
</g>
		<g transform="matrix(1 0 0 1 121.61 100.09)"  >
<circle style="stroke: none; stroke-width: 1; stroke-dasharray: none; stroke-linecap: butt; stroke-dashoffset: 0; stroke-linejoin: miter; stroke-miterlimit: 4; fill: rgb(249,207,30); fill-rule: nonzero; opacity: 1;"  cx="0" cy="0" r="13.126" />
</g>
		<g transform="matrix(0.92 -0.38 0.38 0.92 63.1 100.03)"  >
<ellipse style="stroke: none; stroke-width: 1; stroke-dasharray: none; stroke-linecap: butt; stroke-dashoffset: 0; stroke-linejoin: miter; stroke-miterlimit: 4; fill: rgb(249,207,30); fill-rule: nonzero; opacity: 1;"  cx="0" cy="0" rx="13.126" ry="13.126" />
</g>
		<g transform="matrix(0.16 -0.99 0.99 0.16 91.77 140.24)"  >
<ellipse style="stroke: none; stroke-width: 1; stroke-dasharray: none; stroke-linecap: butt; stroke-dashoffset: 0; stroke-linejoin: miter; stroke-miterlimit: 4; fill: rgb(249,207,30); fill-rule: nonzero; opacity: 1;"  cx="0" cy="0" rx="13.126" ry="13.126" />
</g>
		<g transform="matrix(1 0 0 1 45.14 167.29)"  >
<path style="stroke: none; stroke-width: 1; stroke-dasharray: none; stroke-linecap: butt; stroke-dashoffset: 0; stroke-linejoin: miter; stroke-miterlimit: 4; fill: rgb(249,207,30); fill-rule: nonzero; opacity: 1;"  transform=" translate(-301.14, -423.29)" d="M 314.265 423.289 C 314.265 430.538 308.388 436.41499999999996 301.139 436.41499999999996 C 293.889 436.41499999999996 288.012 430.53799999999995 288.012 423.289 C 288.012 416.04 293.889 410.163 301.139 410.163 C 308.38800000000003 410.163 314.265 416.04 314.265 423.289 z" stroke-linecap="round" />
</g>
</g>
</g>
</svg>